<svg width="377" height="153" viewBox="0 0 377 153" fill="none" xmlns="http://www.w3.org/2000/svg">
<g filter="url(#filter0_dii_2_225)">
<g clip-path="url(#clip0_2_225)">
<rect x="4" y="7" width="369" height="145" rx="72.5" fill="#1C1F2C"/>
<circle cx="299" cy="80" r="102" fill="white" fill-opacity="0.1"/>
<circle cx="299" cy="80" r="144" fill="white" fill-opacity="0.1"/>
<circle cx="299" cy="80" r="190" fill="white" fill-opacity="0.1"/>
<path d="M73 40.6788C75.0366 40.5818 76.766 39.7897 78.1884 38.3024C79.6107 36.8152 80.3219 35.0531 80.3219 33C80.3219 35.0531 81.0331 36.8152 82.4555 38.3024C83.8778 39.7897 85.6073 40.5657 87.66 40.6788C86.3185 40.7435 85.0901 41.1153 83.9586 41.8266C82.8434 42.5218 81.9544 43.4594 81.2917 44.6233C80.6452 45.7873 80.3219 47.0321 80.3219 48.39C80.3219 46.3369 79.6107 44.5587 78.1884 43.0714C76.766 41.568 75.0366 40.7758 73 40.6788Z" fill="white"/>
<path d="M54 109.493C54.9724 109.449 55.7982 109.088 56.4774 108.412C57.1566 107.735 57.4961 106.934 57.4961 106C57.4961 106.934 57.8357 107.735 58.5149 108.412C59.194 109.088 60.0198 109.441 61 109.493C60.3594 109.522 59.7729 109.691 59.2326 110.015C58.7001 110.331 58.2756 110.757 57.9592 111.287C57.6505 111.816 57.4961 112.382 57.4961 113C57.4961 112.066 57.1566 111.257 56.4774 110.581C55.7982 109.897 54.9724 109.537 54 109.493Z" fill="white"/>
<path d="M75 88.4968C75.4168 88.4779 75.7707 88.3235 76.0617 88.0336C76.3528 87.7437 76.4983 87.4002 76.4983 87C76.4983 87.4002 76.6439 87.7437 76.935 88.0336C77.226 88.3235 77.5799 88.4748 78 88.4968C77.7255 88.5095 77.4741 88.5819 77.2426 88.7206C77.0143 88.8561 76.8324 89.0389 76.6968 89.2658C76.5645 89.4926 76.4983 89.7353 76.4983 90C76.4983 89.5998 76.3528 89.2532 76.0617 88.9632C75.7707 88.6702 75.4168 88.5158 75 88.4968Z" fill="white"/>
<path d="M34 57.9916C35.1114 57.9412 36.0551 57.5294 36.8313 56.7563C37.6075 55.9832 37.9956 55.0672 37.9956 54C37.9956 55.0672 38.3837 55.9832 39.1599 56.7563C39.9361 57.5294 40.8798 57.9328 42 57.9916C41.2679 58.0252 40.5976 58.2185 39.9802 58.5882C39.3716 58.9496 38.8864 59.437 38.5248 60.042C38.172 60.6471 37.9956 61.2941 37.9956 62C37.9956 60.9328 37.6075 60.0084 36.8313 59.2353C36.0551 58.4538 35.1114 58.042 34 57.9916Z" fill="white"/>
<path d="M125 108.992C126.111 108.941 127.055 108.529 127.831 107.756C128.607 106.983 128.996 106.067 128.996 105C128.996 106.067 129.384 106.983 130.16 107.756C130.936 108.529 131.88 108.933 133 108.992C132.268 109.025 131.598 109.218 130.98 109.588C130.372 109.95 129.886 110.437 129.525 111.042C129.172 111.647 128.996 112.294 128.996 113C128.996 111.933 128.607 111.008 127.831 110.235C127.055 109.454 126.111 109.042 125 108.992Z" fill="white"/>
<path d="M151 77.9958C151.556 77.9706 152.028 77.7647 152.416 77.3782C152.804 76.9916 152.998 76.5336 152.998 76C152.998 76.5336 153.192 76.9916 153.58 77.3782C153.968 77.7647 154.44 77.9664 155 77.9958C154.634 78.0126 154.299 78.1092 153.99 78.2941C153.686 78.4748 153.443 78.7185 153.262 79.021C153.086 79.3235 152.998 79.6471 152.998 80C152.998 79.4664 152.804 79.0042 152.416 78.6176C152.028 78.2269 151.556 78.021 151 77.9958Z" fill="white"/>
<path d="M117 60.9916C118.111 60.9412 119.055 60.5294 119.831 59.7563C120.607 58.9832 120.996 58.0672 120.996 57C120.996 58.0672 121.384 58.9832 122.16 59.7563C122.936 60.5294 123.88 60.9328 125 60.9916C124.268 61.0252 123.598 61.2185 122.98 61.5882C122.372 61.9496 121.886 62.437 121.525 63.042C121.172 63.6471 120.996 64.2941 120.996 65C120.996 63.9328 120.607 63.0084 119.831 62.2353C119.055 61.4538 118.111 61.042 117 60.9916Z" fill="white"/>
<path d="M170 111.981C172.501 111.868 174.624 110.941 176.37 109.202C178.117 107.462 178.99 105.401 178.99 103C178.99 105.401 179.863 107.462 181.61 109.202C183.356 110.941 185.48 111.849 188 111.981C186.353 112.057 184.845 112.492 183.455 113.324C182.086 114.137 180.994 115.233 180.181 116.595C179.387 117.956 178.99 119.412 178.99 121C178.99 118.599 178.117 116.519 176.37 114.779C174.624 113.021 172.501 112.095 170 111.981Z" fill="white"/>
<path d="M183 70.4884C184.528 70.4191 185.826 69.8529 186.893 68.7899C187.96 67.7269 188.494 66.4674 188.494 65C188.494 66.4674 189.028 67.7269 190.095 68.7899C191.162 69.8529 192.46 70.4076 194 70.4884C192.993 70.5347 192.072 70.8004 191.223 71.3088C190.386 71.8057 189.719 72.4758 189.222 73.3078C188.736 74.1397 188.494 75.0294 188.494 76C188.494 74.5326 187.96 73.2616 186.893 72.1985C185.826 71.1239 184.528 70.5578 183 70.4884Z" fill="white"/>
<g filter="url(#filter1_dd_2_225)">
<g clip-path="url(#clip1_2_225)">
<g filter="url(#filter2_ii_2_225)">
<circle cx="299" cy="80" r="60" fill="#F1C428"/>
</g>
<g filter="url(#filter3_ii_2_225)">
<circle cx="299" cy="80" r="60" fill="#C3C9D1"/>
</g>
<g filter="url(#filter4_i_2_225)">
<circle cx="296.5" cy="46.5" r="8.5" fill="#949EB2"/>
</g>
<g filter="url(#filter5_i_2_225)">
<circle cx="282" cy="90" r="23" fill="#949EB2"/>
</g>
<g filter="url(#filter6_i_2_225)">
<circle cx="330" cy="90" r="13" fill="#949EB2"/>
</g>
</g>
</g>
</g>
</g>
<defs>
<filter id="filter0_dii_2_225" x="0" y="0" width="377" height="159" filterUnits="userSpaceOnUse" color-interpolation-filters="sRGB">
<feFlood flood-opacity="0" result="BackgroundImageFix"/>
<feColorMatrix in="SourceAlpha" type="matrix" values="0 0 0 0 0 0 0 0 0 0 0 0 0 0 0 0 0 0 127 0" result="hardAlpha"/>
<feOffset dy="-3"/>
<feGaussianBlur stdDeviation="2"/>
<feComposite in2="hardAlpha" operator="out"/>
<feColorMatrix type="matrix" values="0 0 0 0 0 0 0 0 0 0 0 0 0 0 0 0 0 0 0.25 0"/>
<feBlend mode="normal" in2="BackgroundImageFix" result="effect1_dropShadow_2_225"/>
<feBlend mode="normal" in="SourceGraphic" in2="effect1_dropShadow_2_225" result="shape"/>
<feColorMatrix in="SourceAlpha" type="matrix" values="0 0 0 0 0 0 0 0 0 0 0 0 0 0 0 0 0 0 127 0" result="hardAlpha"/>
<feOffset dy="7"/>
<feGaussianBlur stdDeviation="4.5"/>
<feComposite in2="hardAlpha" operator="arithmetic" k2="-1" k3="1"/>
<feColorMatrix type="matrix" values="0 0 0 0 0 0 0 0 0 0 0 0 0 0 0 0 0 0 0.25 0"/>
<feBlend mode="normal" in2="shape" result="effect2_innerShadow_2_225"/>
<feColorMatrix in="SourceAlpha" type="matrix" values="0 0 0 0 0 0 0 0 0 0 0 0 0 0 0 0 0 0 127 0" result="hardAlpha"/>
<feOffset dy="-1"/>
<feGaussianBlur stdDeviation="6.5"/>
<feComposite in2="hardAlpha" operator="arithmetic" k2="-1" k3="1"/>
<feColorMatrix type="matrix" values="0 0 0 0 0 0 0 0 0 0 0 0 0 0 0 0 0 0 0.25 0"/>
<feBlend mode="normal" in2="effect2_innerShadow_2_225" result="effect3_innerShadow_2_225"/>
</filter>
<filter id="filter1_dd_2_225" x="235" y="19" width="136" height="136" filterUnits="userSpaceOnUse" color-interpolation-filters="sRGB">
<feFlood flood-opacity="0" result="BackgroundImageFix"/>
<feColorMatrix in="SourceAlpha" type="matrix" values="0 0 0 0 0 0 0 0 0 0 0 0 0 0 0 0 0 0 127 0" result="hardAlpha"/>
<feOffset dx="4" dy="7"/>
<feGaussianBlur stdDeviation="4"/>
<feComposite in2="hardAlpha" operator="out"/>
<feColorMatrix type="matrix" values="0 0 0 0 0 0 0 0 0 0 0 0 0 0 0 0 0 0 0.25 0"/>
<feBlend mode="normal" in2="BackgroundImageFix" result="effect1_dropShadow_2_225"/>
<feColorMatrix in="SourceAlpha" type="matrix" values="0 0 0 0 0 0 0 0 0 0 0 0 0 0 0 0 0 0 127 0" result="hardAlpha"/>
<feOffset dy="4"/>
<feGaussianBlur stdDeviation="2"/>
<feComposite in2="hardAlpha" operator="out"/>
<feColorMatrix type="matrix" values="0 0 0 0 0 0 0 0 0 0 0 0 0 0 0 0 0 0 0.25 0"/>
<feBlend mode="normal" in2="effect1_dropShadow_2_225" result="effect2_dropShadow_2_225"/>
<feBlend mode="normal" in="SourceGraphic" in2="effect2_dropShadow_2_225" result="shape"/>
</filter>
<filter id="filter2_ii_2_225" x="239" y="16" width="123" height="128" filterUnits="userSpaceOnUse" color-interpolation-filters="sRGB">
<feFlood flood-opacity="0" result="BackgroundImageFix"/>
<feBlend mode="normal" in="SourceGraphic" in2="BackgroundImageFix" result="shape"/>
<feColorMatrix in="SourceAlpha" type="matrix" values="0 0 0 0 0 0 0 0 0 0 0 0 0 0 0 0 0 0 127 0" result="hardAlpha"/>
<feOffset dx="3" dy="4"/>
<feGaussianBlur stdDeviation="2"/>
<feComposite in2="hardAlpha" operator="arithmetic" k2="-1" k3="1"/>
<feColorMatrix type="matrix" values="0 0 0 0 0.996078 0 0 0 0 1 0 0 0 0 0.937255 0 0 0 0.61 0"/>
<feBlend mode="normal" in2="shape" result="effect1_innerShadow_2_225"/>
<feColorMatrix in="SourceAlpha" type="matrix" values="0 0 0 0 0 0 0 0 0 0 0 0 0 0 0 0 0 0 127 0" result="hardAlpha"/>
<feOffset dy="-5"/>
<feGaussianBlur stdDeviation="2"/>
<feComposite in2="hardAlpha" operator="arithmetic" k2="-1" k3="1"/>
<feColorMatrix type="matrix" values="0 0 0 0 0.729167 0 0 0 0 0.608477 0 0 0 0 0.182292 0 0 0 1 0"/>
<feBlend mode="normal" in2="effect1_innerShadow_2_225" result="effect2_innerShadow_2_225"/>
</filter>
<filter id="filter3_ii_2_225" x="239" y="16" width="123" height="128" filterUnits="userSpaceOnUse" color-interpolation-filters="sRGB">
<feFlood flood-opacity="0" result="BackgroundImageFix"/>
<feBlend mode="normal" in="SourceGraphic" in2="BackgroundImageFix" result="shape"/>
<feColorMatrix in="SourceAlpha" type="matrix" values="0 0 0 0 0 0 0 0 0 0 0 0 0 0 0 0 0 0 127 0" result="hardAlpha"/>
<feOffset dx="3" dy="4"/>
<feGaussianBlur stdDeviation="2"/>
<feComposite in2="hardAlpha" operator="arithmetic" k2="-1" k3="1"/>
<feColorMatrix type="matrix" values="0 0 0 0 1 0 0 0 0 1 0 0 0 0 1 0 0 0 0.61 0"/>
<feBlend mode="normal" in2="shape" result="effect1_innerShadow_2_225"/>
<feColorMatrix in="SourceAlpha" type="matrix" values="0 0 0 0 0 0 0 0 0 0 0 0 0 0 0 0 0 0 127 0" result="hardAlpha"/>
<feOffset dy="-5"/>
<feGaussianBlur stdDeviation="2"/>
<feComposite in2="hardAlpha" operator="arithmetic" k2="-1" k3="1"/>
<feColorMatrix type="matrix" values="0 0 0 0 0.588235 0 0 0 0 0.588235 0 0 0 0 0.588235 0 0 0 1 0"/>
<feBlend mode="normal" in2="effect1_innerShadow_2_225" result="effect2_innerShadow_2_225"/>
</filter>
<filter id="filter4_i_2_225" x="288" y="38" width="17" height="18" filterUnits="userSpaceOnUse" color-interpolation-filters="sRGB">
<feFlood flood-opacity="0" result="BackgroundImageFix"/>
<feBlend mode="normal" in="SourceGraphic" in2="BackgroundImageFix" result="shape"/>
<feColorMatrix in="SourceAlpha" type="matrix" values="0 0 0 0 0 0 0 0 0 0 0 0 0 0 0 0 0 0 127 0" result="hardAlpha"/>
<feOffset dy="1"/>
<feGaussianBlur stdDeviation="2"/>
<feComposite in2="hardAlpha" operator="arithmetic" k2="-1" k3="1"/>
<feColorMatrix type="matrix" values="0 0 0 0 0 0 0 0 0 0 0 0 0 0 0 0 0 0 0.25 0"/>
<feBlend mode="normal" in2="shape" result="effect1_innerShadow_2_225"/>
</filter>
<filter id="filter5_i_2_225" x="259" y="67" width="46" height="47" filterUnits="userSpaceOnUse" color-interpolation-filters="sRGB">
<feFlood flood-opacity="0" result="BackgroundImageFix"/>
<feBlend mode="normal" in="SourceGraphic" in2="BackgroundImageFix" result="shape"/>
<feColorMatrix in="SourceAlpha" type="matrix" values="0 0 0 0 0 0 0 0 0 0 0 0 0 0 0 0 0 0 127 0" result="hardAlpha"/>
<feOffset dy="1"/>
<feGaussianBlur stdDeviation="2"/>
<feComposite in2="hardAlpha" operator="arithmetic" k2="-1" k3="1"/>
<feColorMatrix type="matrix" values="0 0 0 0 0 0 0 0 0 0 0 0 0 0 0 0 0 0 0.25 0"/>
<feBlend mode="normal" in2="shape" result="effect1_innerShadow_2_225"/>
</filter>
<filter id="filter6_i_2_225" x="317" y="77" width="26" height="27" filterUnits="userSpaceOnUse" color-interpolation-filters="sRGB">
<feFlood flood-opacity="0" result="BackgroundImageFix"/>
<feBlend mode="normal" in="SourceGraphic" in2="BackgroundImageFix" result="shape"/>
<feColorMatrix in="SourceAlpha" type="matrix" values="0 0 0 0 0 0 0 0 0 0 0 0 0 0 0 0 0 0 127 0" result="hardAlpha"/>
<feOffset dy="1"/>
<feGaussianBlur stdDeviation="2"/>
<feComposite in2="hardAlpha" operator="arithmetic" k2="-1" k3="1"/>
<feColorMatrix type="matrix" values="0 0 0 0 0 0 0 0 0 0 0 0 0 0 0 0 0 0 0.25 0"/>
<feBlend mode="normal" in2="shape" result="effect1_innerShadow_2_225"/>
</filter>
<clipPath id="clip0_2_225">
<rect x="4" y="7" width="369" height="145" rx="72.5" fill="white"/>
</clipPath>
<clipPath id="clip1_2_225">
<rect x="239" y="20" width="120" height="120" rx="60" fill="white"/>
</clipPath>
</defs>
</svg>
